<svg width="160" height="160" viewBox="0 0 160 160" fill="none" xmlns="http://www.w3.org/2000/svg">
<g clip-path="url(#clip0_52_42)">
<rect width="160" height="160" fill="#00AAFF"/>
<path d="M0 0H160V160H0V0Z" fill="#00AAFF"/>
<path d="M117.296 54.3582C119.66 55.3893 122.027 57.5382 123.821 59.3379C130.614 66.1454 134.03 75.2299 133.881 84.7613C133.612 102.021 120.826 116.231 103.915 118.89C101.538 119.264 99.1193 119.214 96.7176 119.172C91.9733 119.034 87.2559 117.451 82.9704 115.46C82.004 115.012 81.0831 114.524 80.1 114.099C81.0638 112.276 82.1235 110.718 83.2004 108.964L90.893 96.6823C99.6203 82.6381 108.729 68.4601 117.296 54.3582Z" fill="white"/>
<path d="M55.483 41.3391C55.9494 41.2854 56.006 41.1943 56.3433 41.3942C56.7883 43.5344 56.9561 46.4661 57.3471 48.7572C58.8275 57.4297 59.7841 66.1787 61.0005 74.8818L64.6523 100.785C65.0805 104.007 65.7866 107.936 66.0256 111.065C61.993 111.258 57.6108 111.439 53.6655 110.444C49.733 109.453 45.8494 107.986 42.4409 105.768C41.8085 105.357 41.1834 104.934 40.566 104.501C32.6961 98.8573 28.0806 90.8329 26.5182 81.3564C25.1007 72.2101 27.3444 62.8736 32.763 55.3701C38.2169 47.9093 46.3698 42.8744 55.483 41.3391Z" fill="white"/>
</g>
<defs>
<clipPath id="clip0_52_42">
<rect width="160" height="160" fill="white"/>
</clipPath>
</defs>
</svg>
